<svg version="1.1" id="Layer_1" xmlns="http://www.w3.org/2000/svg" xmlns:xlink="http://www.w3.org/1999/xlink" x="0px" y="0px"
	 width="100%" viewBox="0 0 256 256" enable-background="new 0 0 256 256" xml:space="preserve">
<path fill="#FFFFFF" opacity="1.000000" stroke="none" 
	d="
M134.185318,139.940079 
	C142.498291,136.849518 147.305038,130.137894 148.679855,122.154068 
	C149.960022,114.719902 150.280380,106.691772 144.587097,99.905174 
	C140.154388,94.621246 135.243057,90.314690 128.221008,90.098030 
	C116.575813,89.738739 104.911476,90.000053 93.255196,89.999977 
	C86.310730,89.999931 79.366264,89.999977 72.295761,89.999977 
	C72.295761,95.889801 72.295761,101.275864 72.295761,107.000023 
	C86.546478,107.000023 100.506844,106.844719 114.459969,107.094482 
	C118.655952,107.169601 122.905411,108.086349 126.995399,109.140968 
	C130.836075,110.131302 131.994431,113.498260 130.842773,116.823151 
	C130.034973,119.155281 128.075577,121.619110 125.950142,122.814339 
	C123.844070,123.998672 120.887390,123.935463 118.300323,123.954758 
	C105.146111,124.052887 91.990738,124.016396 78.835846,123.989738 
	C75.159088,123.982292 72.462791,125.535210 72.096214,129.251877 
	C71.694237,133.327347 72.004677,137.473114 72.004677,141.575607 
	C72.946854,141.781464 73.410103,141.970718 73.873566,141.971222 
	C92.190521,141.991104 110.507820,142.040466 128.823868,141.912964 
	C130.338379,141.902420 131.844467,140.678238 134.185318,139.940079 
M168.523636,89.999954 
	C165.094757,89.999954 161.665894,89.999954 158.368942,89.999954 
	C158.368942,96.055687 158.368942,101.445770 158.368942,107.286797 
	C172.749344,107.286797 186.763733,107.286797 200.778122,107.286797 
	C201.377365,108.045670 201.976608,108.804543 202.575851,109.563416 
	C194.152557,117.210876 185.729263,124.858337 176.761856,132.999802 
	C184.674591,132.999802 191.662537,133.195450 198.626541,132.873505 
	C200.566071,132.783829 202.797134,131.552658 204.275055,130.178833 
	C211.793320,123.190208 218.977707,115.840141 226.549423,108.912193 
	C230.321564,105.460770 230.811005,101.222565 229.778168,97.019531 
	C228.459229,91.652252 225.264526,90.003128 218.958908,90.001465 
	C202.478745,89.997116 185.998581,89.999969 168.523636,89.999954 
M214.187042,166.999832 
	C224.124252,166.347321 234.185379,157.655273 234.860840,148.197754 
	C235.417786,140.399689 236.452499,132.177307 230.261169,125.633598 
	C228.704605,123.988426 227.095779,122.372833 225.366409,120.915138 
	C221.757843,117.873451 221.492401,122.419884 220.040527,123.612885 
	C216.631485,126.414047 213.651413,129.737228 210.222717,133.120499 
	C217.789948,136.212173 219.744537,143.373322 213.840195,147.974487 
	C211.917053,149.473145 208.754166,149.870453 206.144028,149.913940 
	C194.338531,150.110519 182.527802,149.967957 170.719208,150.014679 
	C165.408401,150.035690 162.016159,153.512070 162.001282,158.759445 
	C161.993866,161.374405 162.000000,163.989380 162.000000,166.999939 
	C179.405594,166.999939 196.328964,166.999939 214.187042,166.999832 
M93.500122,150.000000 
	C86.407173,150.000000 79.314224,150.000000 72.388489,150.000000 
	C72.388489,156.084915 72.388489,161.480255 72.388489,166.746796 
	C98.046730,166.746796 123.315788,166.746796 148.700027,166.746796 
	C148.700027,161.100098 148.700027,155.710510 148.700027,150.000000 
	C130.434601,150.000000 112.467323,150.000000 93.500122,150.000000 
M41.999947,134.543152 
	C41.999947,145.289322 41.999947,156.035492 41.999947,166.651215 
	C48.046700,166.651215 53.441315,166.651215 58.880779,166.651215 
	C58.880779,149.701706 58.880779,133.101181 58.880779,116.129921 
	C56.293091,117.418137 54.023247,118.769066 51.596119,119.717476 
	C42.018288,123.460037 41.999969,123.413155 41.999947,134.543152 
M46.452454,95.999992 
	C42.398922,97.676712 38.197163,99.073715 34.338615,101.118393 
	C31.235727,102.762650 28.693678,105.144051 28.944162,109.381371 
	C29.198030,113.675941 29.000181,117.997215 29.000181,122.996254 
	C39.081898,117.892975 48.784157,112.981766 58.802044,107.910797 
	C58.802044,102.423981 58.802044,96.326584 58.802044,88.743080 
	C54.432285,91.458519 50.839699,93.691010 46.452454,95.999992 
z"/>
<path fill="#FFAA00" opacity="1.000000" stroke="none" 
	d="
M133.769897,139.979004 
	C131.844467,140.678238 130.338379,141.902420 128.823868,141.912964 
	C110.507820,142.040466 92.190521,141.991104 73.873566,141.971222 
	C73.410103,141.970718 72.946854,141.781464 72.004677,141.575607 
	C72.004677,137.473114 71.694237,133.327347 72.096214,129.251877 
	C72.462791,125.535210 75.159088,123.982292 78.835846,123.989738 
	C91.990738,124.016396 105.146111,124.052887 118.300323,123.954758 
	C120.887390,123.935463 123.844070,123.998672 125.950142,122.814339 
	C128.075577,121.619110 130.034973,119.155281 130.842773,116.823151 
	C131.994431,113.498260 130.836075,110.131302 126.995399,109.140968 
	C122.905411,108.086349 118.655952,107.169601 114.459969,107.094482 
	C100.506844,106.844719 86.546478,107.000023 72.295761,107.000023 
	C72.295761,101.275864 72.295761,95.889801 72.295761,89.999977 
	C79.366264,89.999977 86.310730,89.999931 93.255196,89.999977 
	C104.911476,90.000053 116.575813,89.738739 128.221008,90.098030 
	C135.243057,90.314690 140.154388,94.621246 144.587097,99.905174 
	C150.280380,106.691772 149.960022,114.719902 148.679855,122.154068 
	C147.305038,130.137894 142.498291,136.849518 133.769897,139.979004 
z"/>
<path fill="#008FFE" opacity="1.000000" stroke="none" 
	d="
M169.021027,89.999954 
	C185.998581,89.999969 202.478745,89.997116 218.958908,90.001465 
	C225.264526,90.003128 228.459229,91.652252 229.778168,97.019531 
	C230.811005,101.222565 230.321564,105.460770 226.549423,108.912193 
	C218.977707,115.840141 211.793320,123.190208 204.275055,130.178833 
	C202.797134,131.552658 200.566071,132.783829 198.626541,132.873505 
	C191.662537,133.195450 184.674591,132.999802 176.761856,132.999802 
	C185.729263,124.858337 194.152557,117.210876 202.575851,109.563416 
	C201.976608,108.804543 201.377365,108.045670 200.778122,107.286797 
	C186.763733,107.286797 172.749344,107.286797 158.368942,107.286797 
	C158.368942,101.445770 158.368942,96.055687 158.368942,89.999954 
	C161.665894,89.999954 165.094757,89.999954 169.021027,89.999954 
z"/>
<path fill="#0071FB" opacity="1.000000" stroke="none" 
	d="
M213.719681,166.999878 
	C196.328964,166.999939 179.405594,166.999939 162.000000,166.999939 
	C162.000000,163.989380 161.993866,161.374405 162.001282,158.759445 
	C162.016159,153.512070 165.408401,150.035690 170.719208,150.014679 
	C182.527802,149.967957 194.338531,150.110519 206.144028,149.913940 
	C208.754166,149.870453 211.917053,149.473145 213.840195,147.974487 
	C219.744537,143.373322 217.789948,136.212173 210.222717,133.120499 
	C213.651413,129.737228 216.631485,126.414047 220.040527,123.612885 
	C221.492401,122.419884 221.757843,117.873451 225.366409,120.915138 
	C227.095779,122.372833 228.704605,123.988426 230.261169,125.633598 
	C236.452499,132.177307 235.417786,140.399689 234.860840,148.197754 
	C234.185379,157.655273 224.124252,166.347321 213.719681,166.999878 
z"/>
<path fill="#FF9700" opacity="1.000000" stroke="none" 
	d="
M94.000084,150.000000 
	C112.467323,150.000000 130.434601,150.000000 148.700027,150.000000 
	C148.700027,155.710510 148.700027,161.100098 148.700027,166.746796 
	C123.315788,166.746796 98.046730,166.746796 72.388489,166.746796 
	C72.388489,161.480255 72.388489,156.084915 72.388489,150.000000 
	C79.314224,150.000000 86.407173,150.000000 94.000084,150.000000 
z"/>
<path fill="#00A45D" opacity="1.000000" stroke="none" 
	d="
M41.999947,134.052887 
	C41.999969,123.413155 42.018288,123.460037 51.596119,119.717476 
	C54.023247,118.769066 56.293091,117.418137 58.880779,116.129921 
	C58.880779,133.101181 58.880779,149.701706 58.880779,166.651215 
	C53.441315,166.651215 48.046700,166.651215 41.999947,166.651215 
	C41.999947,156.035492 41.999947,145.289322 41.999947,134.052887 
z"/>
<path fill="#00BC7B" opacity="1.000000" stroke="none" 
	d="
M46.849785,95.961746 
	C50.839699,93.691010 54.432285,91.458519 58.802044,88.743080 
	C58.802044,96.326584 58.802044,102.423981 58.802044,107.910797 
	C48.784157,112.981766 39.081898,117.892975 29.000181,122.996254 
	C29.000181,117.997215 29.198030,113.675941 28.944162,109.381371 
	C28.693678,105.144051 31.235727,102.762650 34.338615,101.118393 
	C38.197163,99.073715 42.398922,97.676712 46.849785,95.961746 
z"/>
</svg>