<svg version="1.1" id="Layer_1" xmlns="http://www.w3.org/2000/svg" xmlns:xlink="http://www.w3.org/1999/xlink" x="0px" y="0px"
	 width="100%" viewBox="0 0 200 200" enable-background="new 0 0 200 200" xml:space="preserve">
<path fill="#FDFEFD" opacity="1.000000" stroke="none" 
	d="
M201.000000,102.000000 
	C201.000000,134.926941 201.000000,167.853867 201.000000,201.000000 
	C168.312759,201.000000 135.625046,201.000000 102.500214,200.660004 
	C109.482544,193.275040 116.901985,186.230103 124.821037,178.710754 
	C97.835159,151.809814 71.937302,125.993469 45.831982,99.970322 
	C71.389481,74.467247 96.825745,49.085133 123.425812,22.541704 
	C121.531364,21.305494 119.748955,20.534943 118.487366,19.252178 
	C112.579704,13.245360 106.815468,7.097484 101.000000,1.000002 
	C134.260269,1.000000 167.520523,1.000000 201.000000,1.000000 
	C201.000000,34.020573 201.000000,67.041626 200.670258,100.460052 
	C179.710327,80.127098 159.080139,59.396770 138.365967,38.582066 
	C130.671356,46.524117 123.541740,53.882992 115.850655,61.821396 
	C128.899521,74.651260 142.257095,87.784630 156.385193,101.675606 
	C142.485748,115.271095 129.094803,128.369186 116.479927,140.708206 
	C124.139297,148.547241 131.386047,155.963974 138.832245,163.584839 
	C154.173340,148.215714 169.664825,132.639267 185.228729,117.135513 
	C190.389999,111.994164 195.737595,107.039833 201.000000,102.000000 
M81.997841,108.493011 
	C87.215309,114.040092 92.432777,119.587181 97.643921,125.127548 
	C107.148193,115.382538 115.784332,106.527649 124.278641,97.818192 
	C117.104462,90.657661 109.618912,83.186371 102.261536,75.842995 
	C93.717461,84.529564 85.031334,93.360558 75.389977,103.162712 
	C77.100151,104.516579 79.295937,106.254883 81.997841,108.493011 
z"/>
<path fill="#3B4857" opacity="1.000000" stroke="none" 
	d="
M100.750000,1.000002 
	C106.815468,7.097484 112.579704,13.245360 118.487366,19.252178 
	C119.748955,20.534943 121.531364,21.305494 123.425812,22.541704 
	C96.825745,49.085133 71.389481,74.467247 45.831982,99.970322 
	C71.937302,125.993469 97.835159,151.809814 124.821037,178.710754 
	C116.901985,186.230103 109.482544,193.275040 102.031555,200.660004 
	C102.000000,201.000000 101.500000,201.000000 101.133316,200.686676 
	C75.807152,175.386932 50.867901,150.380249 25.876701,125.425575 
	C17.653595,117.214493 9.296062,109.138023 1.000000,101.000000 
	C1.000000,101.000000 1.000000,100.500000 1.322474,100.155609 
	C34.429966,66.874138 67.214981,33.937069 100.000000,1.000000 
	C100.000000,1.000000 100.500000,1.000000 100.750000,1.000002 
z"/>
<path fill="#FEFEFE" opacity="1.000000" stroke="none" 
	d="
M1.000000,101.468658 
	C9.296062,109.138023 17.653595,117.214493 25.876701,125.425575 
	C50.867901,150.380249 75.807152,175.386932 100.883316,200.686676 
	C67.739731,201.000000 34.479462,201.000000 1.000000,201.000000 
	C1.000000,167.979431 1.000000,134.958374 1.000000,101.468658 
z"/>
<path fill="#FEFEFE" opacity="1.000000" stroke="none" 
	d="
M99.531342,1.000000 
	C67.214981,33.937069 34.429966,66.874138 1.322474,99.905609 
	C1.000000,67.073067 1.000000,34.146133 1.000000,1.000000 
	C33.687233,1.000000 66.374962,1.000000 99.531342,1.000000 
z"/>
<path fill="#6BB346" opacity="1.000000" stroke="none" 
	d="
M201.000000,101.750000 
	C195.737595,107.039833 190.389999,111.994164 185.228729,117.135513 
	C169.664825,132.639267 154.173340,148.215714 138.832245,163.584839 
	C131.386047,155.963974 124.139297,148.547241 116.479927,140.708206 
	C129.094803,128.369186 142.485748,115.271095 156.385193,101.675606 
	C142.257095,87.784630 128.899521,74.651260 115.850655,61.821396 
	C123.541740,53.882992 130.671356,46.524117 138.365967,38.582066 
	C159.080139,59.396770 179.710327,80.127098 200.670258,100.928711 
	C201.000000,101.000000 201.000000,101.500000 201.000000,101.750000 
z"/>
<path fill="#3E4A59" opacity="1.000000" stroke="none" 
	d="
M81.744781,108.243095 
	C79.295937,106.254883 77.100151,104.516579 75.389977,103.162712 
	C85.031334,93.360558 93.717461,84.529564 102.261536,75.842995 
	C109.618912,83.186371 117.104462,90.657661 124.278641,97.818192 
	C115.784332,106.527649 107.148193,115.382538 97.643921,125.127548 
	C92.432777,119.587181 87.215309,114.040092 81.744781,108.243095 
z"/>
</svg>