<svg xmlns="http://www.w3.org/2000/svg" width="75" height="75" viewBox="0 0 75 75">
<path d="M0 0 C24.75 0 49.5 0 75 0 C75 24.75 75 49.5 75 75 C50.25 75 25.5 75 0 75 C0 50.25 0 25.5 0 0 Z " fill="#FDFDFC" transform="translate(0,0)"/>
<path d="M0 0 C2.69990662 1.79993774 4.5418865 3.083773 6 6 C6.59832641 9.14121367 6.56588141 11.15738661 4.75390625 13.85546875 C2.91030791 15.98859293 0.98635546 17.99903898 -1 20 C-1.721875 20.74765625 -2.44375 21.4953125 -3.1875 22.265625 C-7.29887328 26.46265189 -11.54937966 30.41199422 -16.01171875 34.23046875 C-18.92213353 36.82068072 -21.6254509 39.60156088 -24.3359375 42.3984375 C-26.74342223 44.71550027 -27.92457836 44.99003865 -31.3125 45.4375 C-35 45 -35 45 -38 42.4375 C-40 39 -40 39 -40.03466797 35.73364258 C-38.65010818 30.73740077 -36.12607196 28.34532823 -32.4453125 24.82421875 C-31.78796112 24.17298538 -31.13060974 23.52175201 -30.45333862 22.8507843 C-28.35757613 20.78187782 -26.24161881 18.73504107 -24.125 16.6875 C-22.70831827 15.29235184 -21.29293844 13.89588037 -19.87890625 12.49804688 C-17.28633274 9.9475318 -14.69211732 7.39895178 -12.07861328 4.86987305 C-11.55534454 4.36248093 -11.03207581 3.85508881 -10.49295044 3.33232117 C-6.91544607 0.13972705 -4.71431537 -0.56571784 0 0 Z " fill="#FF6304" transform="translate(64,9)"/>
<path d="M0 0 C3.57632467 2.51103647 4.78325846 4.04272488 5.75 8.3125 C4.65063388 13.71771674 1.85042377 16.17989453 -2 20 C-3.17150017 21.19440373 -4.34198918 22.38979969 -5.51171875 23.5859375 C-7.99430732 26.10732654 -10.48090851 28.62433097 -12.98828125 31.12109375 C-13.51977783 31.6514624 -14.05127441 32.18183105 -14.59887695 32.72827148 C-17.47216219 35.33620715 -20.22385854 35.34246627 -24.02734375 35.2734375 C-26 35 -26 35 -28.4375 33.4375 C-30.63624632 30.00745574 -31.20546215 28.10924297 -31 24 C-29.09790382 20.9090937 -26.58775903 18.52431135 -24 16 C-22.78763672 14.75283203 -22.78763672 14.75283203 -21.55078125 13.48046875 C-19.07033654 10.94684452 -16.54585052 8.46770648 -14 6 C-13.03513672 5.02546875 -13.03513672 5.02546875 -12.05078125 4.03125 C-8.16780349 0.33151388 -5.57114577 -1.13486303 0 0 Z " fill="#059BFF" transform="translate(38,4)"/>
<path d="M0 0 C3.33377678 2.36142522 4.69652395 3.8619648 5.75 7.8125 C4.58760114 12.75269516 1.48880761 15.44705989 -2 19 C-2.721875 19.81726563 -3.44375 20.63453125 -4.1875 21.4765625 C-10.56048531 28.44701518 -10.56048531 28.44701518 -15.25 29.3125 C-19.55095051 28.95408746 -21.07158096 28.10589898 -24 25 C-25.44430855 22.11138291 -25.37688506 20.20352299 -25 17 C-23.38812922 15.28028254 -21.70960313 13.62259444 -20 12 C-19.04866653 10.96894861 -18.10481124 9.93095459 -17.16796875 8.88671875 C-16.1746708 7.820134 -15.18117926 6.75372951 -14.1875 5.6875 C-13.70474609 5.13771484 -13.22199219 4.58792969 -12.72460938 4.02148438 C-8.60851657 -0.30982897 -5.92299691 -0.76091944 0 0 Z " fill="#FFB320" transform="translate(65,41)"/>
<path d="M0 0 C3.30849179 0.4511185 4.93878969 1.57695338 7.234375 3.94140625 C8.09482422 4.81635742 8.09482422 4.81635742 8.97265625 5.70898438 C9.55917969 6.32064453 10.14570313 6.93230469 10.75 7.5625 C11.35199219 8.17802734 11.95398438 8.79355469 12.57421875 9.42773438 C14.05634381 10.94514813 15.5290967 12.47170596 17 14 C16.67 14.99 16.34 15.98 16 17 C13.54137599 17.05383848 11.0839245 17.09359038 8.625 17.125 C7.57699219 17.15013672 7.57699219 17.15013672 6.5078125 17.17578125 C4.67102514 17.19344267 2.83398037 17.10303261 1 17 C-1 15 -1 15 -1.23046875 11.77734375 C-1.20919922 9.87662109 -1.20919922 9.87662109 -1.1875 7.9375 C-1.18105469 6.66777344 -1.17460938 5.39804687 -1.16796875 4.08984375 C-1 1 -1 1 0 0 Z " fill="#111C56" transform="translate(8,53)"/>
</svg>
