<svg width="67" height="70" viewBox="0 0 67 70" fill="none" xmlns="http://www.w3.org/2000/svg">
<g filter="url(#filter0_ddd_3004_1988)">
<rect x="1.5" y="1" width="64" height="64" rx="12" fill="#1A1A19"/>
<path d="M43.258 21H34.751C27.0977 21 26.509 24.3474 26.509 28.8306V37.1694C26.509 41.8319 27.0977 45 34.7805 45H43.258C50.9113 45 51.5 41.6526 51.5 37.1993V28.8306C51.5 24.3773 50.9113 21 43.258 21ZM15.5 27.0075C15.5 23.0623 17.0307 21 19.621 21C22.2114 21 23.742 23.0623 23.742 27.0075V38.9925C23.742 42.9377 22.2114 45 19.621 45C17.0307 45 15.5 42.9377 15.5 38.9925V27.0075Z" fill="white"/>
</g>
<defs>
<filter id="filter0_ddd_3004_1988" x="0" y="0" width="67" height="69.5" filterUnits="userSpaceOnUse" color-interpolation-filters="sRGB">
<feFlood flood-opacity="0" result="BackgroundImageFix"/>
<feColorMatrix in="SourceAlpha" type="matrix" values="0 0 0 0 0 0 0 0 0 0 0 0 0 0 0 0 0 0 127 0" result="hardAlpha"/>
<feMorphology radius="1" operator="dilate" in="SourceAlpha" result="effect1_dropShadow_3004_1988"/>
<feOffset/>
<feComposite in2="hardAlpha" operator="out"/>
<feColorMatrix type="matrix" values="0 0 0 0 0.0901961 0 0 0 0 0.0901961 0 0 0 0 0.0901961 0 0 0 0.02 0"/>
<feBlend mode="normal" in2="BackgroundImageFix" result="effect1_dropShadow_3004_1988"/>
<feColorMatrix in="SourceAlpha" type="matrix" values="0 0 0 0 0 0 0 0 0 0 0 0 0 0 0 0 0 0 127 0" result="hardAlpha"/>
<feMorphology radius="0.5" operator="erode" in="SourceAlpha" result="effect2_dropShadow_3004_1988"/>
<feOffset dy="1"/>
<feGaussianBlur stdDeviation="0.5"/>
<feComposite in2="hardAlpha" operator="out"/>
<feColorMatrix type="matrix" values="0 0 0 0 0.0901961 0 0 0 0 0.0901961 0 0 0 0 0.0901961 0 0 0 0.06 0"/>
<feBlend mode="normal" in2="effect1_dropShadow_3004_1988" result="effect2_dropShadow_3004_1988"/>
<feColorMatrix in="SourceAlpha" type="matrix" values="0 0 0 0 0 0 0 0 0 0 0 0 0 0 0 0 0 0 127 0" result="hardAlpha"/>
<feMorphology radius="1.5" operator="erode" in="SourceAlpha" result="effect3_dropShadow_3004_1988"/>
<feOffset dy="3"/>
<feGaussianBlur stdDeviation="1.5"/>
<feComposite in2="hardAlpha" operator="out"/>
<feColorMatrix type="matrix" values="0 0 0 0 0.0901961 0 0 0 0 0.0901961 0 0 0 0 0.0901961 0 0 0 0.06 0"/>
<feBlend mode="normal" in2="effect2_dropShadow_3004_1988" result="effect3_dropShadow_3004_1988"/>
<feBlend mode="normal" in="SourceGraphic" in2="effect3_dropShadow_3004_1988" result="shape"/>
</filter>
</defs>
</svg>
